<svg width="20" height="20" viewBox="0 0 20 20" fill="none" xmlns="http://www.w3.org/2000/svg">
<path d="M18.2715 2.80273H18.5547L18.75 2.83203L18.9551 2.89062L19.1113 2.95898L19.2871 3.05664L19.4434 3.18359L19.5215 3.25195L19.6094 3.33984L19.7363 3.50586L19.7949 3.60352L19.873 3.75L19.9609 4.01367L19.9805 4.10156H20V4.66797H19.9805L19.9219 4.89258L19.8633 5.04883L19.7559 5.24414L19.6777 5.35156L19.541 5.51758L8.30078 16.7578L8.16406 16.8652L8.04688 16.9531L7.82227 17.0703L7.61719 17.1387L7.45117 17.1777L7.25586 17.1973H7.10938L6.89453 17.1777L6.58203 17.0801L6.39648 16.9824L6.28906 16.9141L6.12305 16.7773L6.02539 16.6895L0.449219 11.1133L0.273438 10.8984L0.195312 10.7715L0.0976562 10.5664L0.0292969 10.3418L0.0195312 10.2539L0 10.2441V9.76562L0.0195312 9.70703L0.078125 9.48242L0.136719 9.33594L0.244141 9.14062L0.322266 9.0332L0.439453 8.89648L0.517578 8.81836L0.654297 8.71094L0.751953 8.64258L0.976562 8.52539L1.18164 8.45703L1.30859 8.42773L1.48438 8.4082H1.68945L1.91406 8.4375L2.14844 8.50586L2.35352 8.60352L2.48047 8.68164L2.63672 8.80859L2.74414 8.89648L7.1875 13.3398L7.22656 13.3203L17.3047 3.24219L17.4121 3.1543L17.5391 3.05664L17.6953 2.96875L17.8418 2.90039L18.0273 2.8418L18.1836 2.8125L18.2715 2.80273Z" fill="#05B100"/>
</svg>
