<svg width="77" height="77" viewBox="0 0 77 77" fill="none" xmlns="http://www.w3.org/2000/svg">
<path d="M67.0742 2.40625H67.6758L68.127 2.63184L68.4277 2.97021L68.5781 3.38379V9.5874H69.8564L70.5332 9.6626L71.1348 9.85059L71.6611 10.1138L72.0747 10.4146L72.4507 10.7529L72.8267 11.2417L73.0898 11.6929L73.3154 12.332L73.3906 12.7456V13.7231L73.2402 14.3623L72.9771 14.9639L72.7139 15.3774L72.2627 15.9038L71.7739 16.2798L71.1724 16.5806L70.7588 16.731L70.1196 16.8438L68.6157 16.8813L68.5781 18.0093H71.0596L71.7363 18.0845L72.3379 18.2725L72.8643 18.5356L73.3906 18.9116V18.9868L73.541 19.062L73.8418 19.4004L74.1802 19.9268L74.4058 20.4155L74.5562 20.9419L74.5938 21.2051L74.6313 22.5586V26.6943L74.5938 60.5698L74.481 61.1338L74.293 61.6602L74.0674 62.0737L73.7666 62.4873L73.5786 62.7129L73.165 63.0513L72.7515 63.3145L72.3755 63.5024L71.7739 63.6904L71.2476 63.7656H43.3501L43.3125 67.3374H50.3809L50.9448 67.4126L51.3208 67.6382L51.584 67.939L51.7344 68.3525V73.6538L51.4712 74.1802L51.208 74.4058L50.8696 74.5562L50.644 74.5938H26.2432L25.8296 74.4434L25.4912 74.1426L25.2656 73.6914L25.228 73.3154V68.5405L25.3032 68.1646L25.4536 67.8638L25.6416 67.6758L25.9424 67.4502L26.1304 67.375L26.4312 67.3374H33.6499V63.7656H5.67725L5.18848 63.6904L4.69971 63.54L4.09814 63.2393L3.64697 62.9009L3.1958 62.4497L2.93262 62.0737L2.63184 61.5098L2.48145 61.0586L2.40625 60.6074L2.36865 60.1562V21.5435L2.44385 20.9043L2.63184 20.3027L2.93262 19.7012L3.30859 19.2124L3.60938 18.9116L4.06055 18.5732L4.62451 18.2725L5.26367 18.0845L5.90283 18.0093H8.38428V7.14355L8.45947 6.80518L8.60986 6.50439L8.72266 6.354H8.79785V6.27881L9.17383 6.05322L9.5874 5.97803H33.5747L34.1011 6.05322L34.3267 6.16602L34.665 6.4668L34.853 6.80518L34.8906 6.95557V18.0093H42.0718L42.0342 16.8813L39.4775 16.8438L39.064 16.6934L38.7256 16.3926L38.5 15.9414L38.4624 15.5278V10.7905L38.5376 10.4146L38.688 10.1138L38.876 9.92578L39.1768 9.7002L39.3647 9.625L39.6279 9.5874H42.0718V8.34668L42.147 8.0083L42.2974 7.70752L42.4854 7.51953L42.7861 7.29395L42.9741 7.21875L43.2749 7.18115L51.6216 7.14355L53.8398 6.4668L54.8926 6.12842L56.3965 5.67725L58.2012 5.11328L60.3066 4.47412L63.4648 3.49658L66.8862 2.44385L67.0742 2.40625ZM66.0591 5.26367L63.5024 6.05322L61.397 6.69238L59.1035 7.40674L56.5469 8.19629L54.103 8.94824L52.9751 9.28662L52.9375 9.43701V17.1069L53.2759 17.2573L55.6445 17.9717L56.6973 18.3101L58.314 18.7988L59.4043 19.1372L60.6074 19.5132L62.2241 20.002L63.3145 20.3403L65.7207 21.0923L66.1343 21.2051L66.1719 21.0923L66.1343 5.26367H66.0591ZM10.8657 8.42188L10.8281 8.83545V25.228L32.334 25.2656L32.4468 25.228V8.42188H10.8657ZM44.5532 9.625L44.5156 10.189V16.8062H50.4937V9.625H44.5532ZM40.9438 12.0312L40.9062 12.144V14.3999L41.8838 14.4375L42.0718 14.3999V12.0312H40.9438ZM68.6157 12.0312L68.5781 12.144V14.3999H69.9692L70.3076 14.2871L70.646 14.0615L70.8716 13.7231L70.9468 13.4976V12.9712L70.7588 12.52L70.4956 12.2568L70.1948 12.1064L69.7812 12.0312H68.6157ZM45.7563 19.25L45.7188 19.8892V25.228H47.0723L47.4106 22.897L47.8618 19.7764L47.937 19.25H45.7563ZM50.3809 19.25L50.1929 20.5283L49.8921 22.5962L49.3281 26.5063L49.2529 26.8447L49.0273 27.2583L48.7642 27.4839L48.501 27.5967L48.2754 27.6343H44.29L43.8765 27.4839L43.5757 27.2207L43.3501 26.7695L43.3125 26.3936L43.2749 20.4531H34.9282L34.8906 21.3179L34.853 26.7319L34.5898 27.2583L34.3267 27.4839L34.0259 27.5967L33.8003 27.6343H9.39941L8.98584 27.4839L8.64746 27.1831L8.45947 26.7695L8.42188 26.356L8.38428 20.4531H5.94043L5.56445 20.5283L5.22607 20.7539L5.00049 21.0171L4.8501 21.3931L4.8125 21.9194V56.5093L4.96289 56.5469H72.0371L72.1499 56.5093V21.3931L71.9619 20.9419L71.6987 20.6787L71.3979 20.5283L70.9844 20.4531H68.6157L68.5781 20.5283V21.1675L68.5405 23.1226L68.2773 23.6489L67.9766 23.8745L67.751 23.9873L67.563 24.0249H67.1494L66.5854 23.8745L55.9453 20.6035L55.0054 20.3027L52.9375 19.6636L51.6592 19.2876L51.396 19.25H50.3809ZM4.8501 58.9531L4.8125 59.0659V60.1187L4.8877 60.5698L5.11328 60.9458L5.37646 61.1714L5.79004 61.3218H71.21L71.5859 61.1714L71.8867 60.9458L72.0747 60.6074L72.1499 60.3442V58.9531H4.8501ZM36.1313 63.7656L36.0938 64.1792V67.3374L40.7559 67.375L40.8687 67.3374V63.7656H36.1313ZM27.7095 69.7812L27.6719 69.894V72.1499L49.1777 72.1875L49.2905 72.1499V69.7812H27.7095Z" fill="#0A7B07"/>
<path d="M8.38428 32.4468H39.5527L40.0039 32.4844L40.3423 32.6348L40.6431 32.8979L40.8311 33.1611L40.9062 33.4243L40.9438 46.4331L40.9062 53.1631L40.7559 53.5391L40.6055 53.7646L40.3423 53.9902L40.0415 54.103L39.8159 54.1406H8.19629L7.78271 53.9902L7.44434 53.6895L7.21875 53.2383L7.18115 52.9375V33.6123L7.25635 33.2739L7.40674 32.9731L7.59473 32.7852L7.89551 32.5596L8.0835 32.4844L8.38428 32.4468ZM12.8208 34.8906L12.7832 34.9658L13.7983 35.5674L18.498 38.4624L19.2876 38.9512L20.1523 39.4775L20.8667 39.9287L21.6187 40.3799L23.3857 41.4702L23.9873 41.8462L24.1753 41.8086L24.9272 41.3574L26.5063 40.3799L27.5591 39.7407L28.2734 39.2896L29.3262 38.6504L30.1157 38.1616L31.0933 37.5601L31.958 37.0337L32.8604 36.4697L33.9131 35.8306L34.7026 35.3418L35.3042 34.9658L35.1538 34.8906H12.8208ZM9.625 35.8682V51.6968L38.3496 51.7344L38.4624 51.6968V35.9058L38.2744 35.981L37.5225 36.4321L35.4546 37.7104L24.7017 44.3276L24.2881 44.478H23.7993L23.3481 44.29L22.8594 43.9893L21.957 43.4253L21.0923 42.8989L11.5049 36.9961L9.73779 35.9058L9.625 35.8682Z" fill="#0A7B07"/>
<path d="M44.478 30.0405H66.0215L66.5854 30.1157L66.9614 30.3413L67.2246 30.6421L67.375 31.0181V34.853H68.5781L68.9917 34.9282L69.2925 35.0786L69.5557 35.3418L69.7437 35.6802L69.7812 35.8306V50.7944L69.6309 51.1328L69.4805 51.3584L69.2173 51.584L68.9165 51.6968L68.6909 51.7344H47.8994L47.4858 51.584L47.1099 51.2456L46.9219 50.832L46.8843 50.3809V46.9219H44.29L43.8765 46.7715L43.5381 46.4707L43.3125 46.0195L43.2749 45.7188V31.2061L43.3501 30.8677L43.5005 30.5669L43.6133 30.4165H43.6885V30.3413L43.9893 30.1533L44.1772 30.0781L44.478 30.0405ZM45.7563 32.4844L45.7188 32.5972V44.478L46.7715 44.5156L46.8843 44.478L46.9219 36.0186L46.9971 35.6802L47.1475 35.3794L47.2979 35.1914L47.5986 35.0034L47.7866 34.9282L48.0498 34.8906H64.8184L64.9312 34.853V32.4844H45.7563ZM49.3657 37.2969L49.3281 37.4097V49.2905L67.2246 49.3281L67.3374 49.2905V37.2969H49.3657Z" fill="#0A7B07"/>
<path d="M19.1372 11.9937L19.5508 12.0312L20.1523 12.2944L26.9199 15.6782L27.2959 15.9414L27.5215 16.2046L27.6719 16.543L27.7095 16.8438L27.6343 17.2573L27.4463 17.5957L27.1079 17.8965L19.8892 21.5059L19.438 21.6562H19.0244L18.6108 21.5059L18.2725 21.2051L18.0845 20.8667L18.0093 20.3403V13.2344L18.0845 12.8208L18.2725 12.4824L18.4604 12.2944L18.7236 12.1064L19.1372 11.9937ZM20.4531 15.2271V18.4604L20.6787 18.3853L22.1074 17.6709L22.8218 17.2949L23.6113 16.9189L23.6865 16.8062L22.2202 16.0542L20.5659 15.2271H20.4531Z" fill="#0A7B07"/>
<path d="M56.5845 39.6655H64.9312L65.0063 39.7783L64.9688 42.1094H56.5469L56.5093 42.0342V39.7407L56.5845 39.6655Z" fill="#0A7B07"/>
<path d="M58.9907 44.478H64.9312L65.0063 44.7036L64.9688 46.9219H58.9531L58.9155 46.8467V44.5532L58.9907 44.478Z" fill="#0A7B07"/>
<path d="M51.772 44.478H56.5093L56.5845 44.7036L56.5469 46.9219H51.7344L51.6968 46.8843V44.5532L51.772 44.478Z" fill="#0A7B07"/>
<path d="M51.772 39.6655H54.103L54.1782 39.7783L54.1406 42.1094H51.7344L51.6968 42.0718V39.7407L51.772 39.6655Z" fill="#0A7B07"/>
</svg>
