<svg width="77" height="77" viewBox="0 0 77 77" fill="none" xmlns="http://www.w3.org/2000/svg">
<path d="M74.7817 5.30127H75.3457L75.8345 5.45166L76.2856 5.71484L76.5488 5.97803L76.8496 6.4292L77 6.76758V11.2793L76.9248 11.3921L76.812 14.9639L76.7744 15.603L76.6616 16.0542L76.5112 16.355L76.248 16.6934L75.9473 16.9565L75.4209 17.2197L75.0449 17.2949H74.5186L74.105 17.1821L73.729 16.9941L73.1274 16.543L72.8643 16.3926L72.7891 16.5806L72.4883 16.9565L71.8115 17.8589L70.9844 18.9116L70.5332 19.4756L69.8564 20.3027L69.4053 20.8291L69.0669 21.2427L68.5781 21.8066L68.1646 22.2578L67.9014 22.5586L67.7886 22.709H67.7134L67.6382 22.8594L67.4126 23.085L67.4502 23.1226L69.3301 23.1602L69.8564 23.2729L70.3828 23.5361L70.7588 23.8369L71.0596 24.1377L71.3604 24.5889L71.5483 25.1152L71.6235 25.604V61.8481H72.4131L73.165 61.9609L73.8042 62.1489L74.4434 62.4497L74.9321 62.7881L75.3081 63.0889L75.7217 63.5024L76.1353 64.0664L76.4736 64.7056L76.6992 65.3447L76.812 65.8711L76.8496 66.1719L76.8872 67.0366V69.2925L76.8496 70.0068L76.6992 70.5332L76.436 70.9468L76.2104 71.21L75.7969 71.4731L75.3833 71.6235L74.8193 71.6987H2.03027L1.50391 71.6235L1.05273 71.4355L0.676758 71.1348L0.413574 70.834L0.187988 70.3828L0.0751953 69.8564L0.0375977 69.7061L0 69.2173V67.6006L0.0375977 66.7358L0.150391 65.7583L0.338379 65.0439L0.601562 64.4424L0.939941 63.8784L1.24072 63.5024L1.5791 63.1265L1.99268 62.7881L2.51904 62.4497L3.04541 62.1865L3.60938 61.9985L4.17334 61.8857L4.47412 61.8481L5.41406 61.8105L5.45166 50.1929H2.97021L2.40625 50.0801L1.76709 49.8169L1.31592 49.5161L0.864746 49.1025L0.563965 48.7266L0.225586 48.125L0 47.4482V46.0947L0.112793 45.7939L0.300781 45.3052L0.526367 44.9292L0.864746 44.478L1.16553 44.1772L1.72949 43.8013L2.33105 43.5381L2.78223 43.4253L3.1958 43.3877H5.45166V38.5L5.60205 37.936L5.86523 37.4097L6.12842 37.0713L6.4292 36.7705L6.84277 36.5073L7.29395 36.3193L7.89551 36.2065H17.2197L17.7461 36.2817L18.1597 36.4321L18.5732 36.6577L19.062 37.0713L19.4004 37.5601L19.5508 37.8608L19.6636 38.1992L19.7388 38.8008V42.1846L20.1899 42.0718L22.5962 41.583H22.709L22.7466 34.9658L22.897 34.3643L23.1602 33.8379L23.4233 33.4995L23.7617 33.1611L24.2505 32.8604L24.8145 32.6724L25.1152 32.6348H34.6274L35.0786 32.71L35.4922 32.8604L35.9434 33.1235L36.3945 33.5371L36.6953 33.9507L36.9209 34.4395L36.9961 34.7778L37.0337 35.1162V36.8081L37.6353 36.5449L38.1992 36.2817L39.3647 35.7178L39.9287 35.4546H40.0039L40.0415 30.5669L40.1919 29.9653L40.4551 29.439L40.7559 29.063L41.1694 28.687L41.7334 28.3862L42.1846 28.2734L42.4478 28.2358L51.6968 28.1982L52.2231 27.8223L52.8999 27.2959L53.4639 26.8447L53.9902 26.4312L54.479 26.0176L54.8926 25.6792L55.3813 25.2656L55.9077 24.8145L56.4717 24.3257L56.998 23.8369H57.0732V23.7617L57.374 23.4985L57.8252 23.085L58.126 22.8218L58.5771 22.3706L58.8779 22.1074L60.8706 20.1147L61.2466 19.9268L61.3594 19.8892H61.8481L62.1865 20.0396L62.4873 20.3027L62.6753 20.6035L62.7505 20.9043V21.2051L62.6377 21.5435L62.4121 21.8442L62.3369 21.957H62.2617L62.1865 22.1074H62.1113L62.0361 22.2578H61.9609L61.8857 22.4082L60.9834 23.3105H60.9082V23.3857H60.833V23.4609L60.5322 23.7241L59.9683 24.2881H59.8931V24.3633L59.5923 24.6265L58.9531 25.228L58.502 25.6416L58.2012 25.9048L57.8252 26.2432L57.4116 26.5815L56.8853 27.0703L56.5093 27.3711L56.0205 27.7847L55.4189 28.2734L54.8926 28.687L54.3286 29.1382L53.3511 29.8901L51.9224 30.9429L51.208 31.4316L50.6064 31.8828L48.9521 32.9731L48.313 33.3867L47.5986 33.8379L46.8091 34.3267L45.9819 34.8154L45.0796 35.3418L44.0269 35.9434L43.1621 36.3945L42.6357 36.6953L40.4551 37.7856L39.8159 38.0864L39.2896 38.3496L38.0488 38.9136L36.7705 39.4775L35.3794 40.0415L33.9507 40.6055L32.2212 41.2446L30.5669 41.8086L28.9126 42.335L27.0703 42.8613L25.3784 43.3125L23.4985 43.7637L21.3555 44.2148L19.5132 44.5532L17.6333 44.854L15.7158 45.1172L13.6104 45.3428L11.8433 45.4932L10.001 45.606L7.85791 45.6812L3.34619 45.7188L2.93262 45.7939L2.63184 46.0195H2.55664L2.48145 46.1699L2.33105 46.5459V47.0347L2.48145 47.4106L2.63184 47.5986L3.00781 47.8242L3.1958 47.8618H7.82031L9.96338 47.7866L11.8809 47.6738L14.4375 47.4482L16.355 47.2227L18.498 46.9219L20.9043 46.5083L22.9722 46.0947L25.416 45.5308L27.5591 44.9668L29.627 44.3652L31.6196 43.7261L32.6348 43.3877L34.6274 42.6733L36.7329 41.8462L38.8384 40.9438L40.3047 40.2671L41.6582 39.6279L43.1621 38.876L43.9893 38.4248L45.1924 37.7856L46.0947 37.2593L46.9595 36.7705L47.7114 36.3193L48.689 35.7178L49.4033 35.2666L50.2681 34.7026L51.7344 33.7251L53.0127 32.8228L53.5391 32.4468L54.1406 31.9956L54.855 31.4692L56.4341 30.2285L57.0356 29.7397L57.4492 29.4014L57.9756 28.9502L58.3892 28.6118L58.9531 28.123L59.2539 27.8599L59.6675 27.4839L59.9683 27.2207L60.3442 26.8823L60.645 26.6191L60.833 26.4312H60.9082V26.356L61.209 26.0928L61.6226 25.6792L61.9233 25.416L62.2617 25.0776H62.3369V25.0024H62.4121V24.9272L62.5625 24.7769H62.6377V24.7017H62.7129V24.6265H62.7881V24.5513H62.8633V24.4761H62.9385V24.4009H63.0137V24.3257H63.0889V24.2505H63.1641V24.1753H63.2393V24.1001H63.3145L63.3896 23.9497L64.5552 22.7842L64.8184 22.4834L65.1567 22.145L65.1943 22.0698H65.2695L65.3447 21.9194L65.7207 21.5435L66.0591 21.1299L66.5103 20.6411L66.5479 20.5659H66.623L66.6982 20.4155L67.1118 19.9644L67.4502 19.5508L67.7886 19.1748L68.2021 18.6484L68.5405 18.2725L68.9541 17.7461L69.4805 17.0693L69.894 16.543L70.4204 15.8662L70.9092 15.1895L71.3228 14.6255L71.8115 13.9487L72.1499 13.7231L72.4507 13.6104H72.8643L73.2402 13.7607L73.729 14.0991L74.4434 14.6255L74.5186 14.6631V13.272L74.6689 7.9707L74.7065 7.74512L73.165 8.27148L70.2324 9.24902L68.6909 9.77539L68.2021 9.92578H68.127V10.001L68.2773 10.0762L68.9165 10.5273L69.5557 11.0161L69.8564 11.2793L70.082 11.5425L70.1948 11.8809V12.2568L70.0068 12.708L69.6309 13.2344L69.1421 13.9111L68.8037 14.3623L68.2773 15.0391L67.939 15.4902L67.5254 16.0166L67.187 16.4302L66.7734 16.9565L66.3599 17.4453L66.0215 17.8589L65.6079 18.3101L65.2695 18.5356L65.0439 18.6108H64.6304L64.292 18.498L63.916 18.1597L63.728 17.7837L63.6904 17.6333V17.2949L63.8408 16.8813L64.0664 16.5806L64.48 16.0918L64.8184 15.6782L65.3071 15.0767L65.3447 15.0015H65.4199L65.4951 14.8511L66.5479 13.4976L66.999 12.896L67.2998 12.4824L67.375 12.2944L66.7358 11.8057L66.1343 11.3545L65.8335 11.0537L65.5703 10.6025L65.4199 10.0762V9.6626L65.5703 9.06104L65.7959 8.68506L66.0967 8.34668L66.4727 8.0835L67.375 7.74512L70.3076 6.76758L71.8491 6.24121L74.4434 5.37646L74.7817 5.30127ZM65.1567 25.4536L63.5024 27.1079L63.2017 27.3711L62.7881 27.7847L62.4873 28.0479L61.9233 28.5742L61.6226 28.8374L61.1338 29.2886L60.833 29.5518L60.3066 30.0029L59.7427 30.4917L59.6675 30.5293L59.6299 31.6572V61.8481H69.3301V25.792L69.2173 25.5288L69.1421 25.4536H65.1567ZM42.5605 30.5293L42.4102 30.6421L42.3726 30.7549L42.335 34.2139L42.9365 33.9131L43.6133 33.5371L44.5908 32.9731L45.606 32.3716L46.5835 31.77L47.5234 31.1685L48.3882 30.6045V30.5293H42.5605ZM25.2656 34.9282L25.0776 35.1162L25.04 35.417V41.019L25.6416 40.8687L27.1455 40.4551L29.2134 39.8159L30.7173 39.3271L32.2964 38.7632L34.0635 38.0864L34.665 37.8608L34.7402 37.7856V35.981L34.7026 35.1162L34.5146 34.9282H25.2656ZM57.2612 32.522L55.9829 33.4995L55.2686 34.0259L54.8174 34.3643L54.4038 34.665L54.3286 34.7402L54.291 48.2754L54.2534 48.6514L54.0654 48.9897L53.915 49.1777L53.5391 49.3657L53.4263 49.4033H52.8999L52.5615 49.2529L52.2983 49.0273L52.1104 48.689L52.0728 48.5386L52.0352 36.3569L51.8472 36.4321L51.2456 36.8081L50.4937 37.2969L49.7793 37.748L49.2153 38.0864L48.4258 38.5752L47.4482 39.1392L46.3955 39.7407L45.418 40.2671L44.3652 40.8311L43.3501 41.3574L42.7109 41.6582L42.3726 41.8462L42.335 42.6357V61.8481H52.0352L52.0728 52.8999L52.2231 52.5239L52.4863 52.2231L52.8623 52.0352H53.4263L53.8022 52.1855L54.0278 52.3735L54.2158 52.7119L54.291 53.0127L54.3286 61.8481H57.3364V32.522H57.2612ZM8.0835 38.5L7.82031 38.5752L7.74512 38.8384V43.3501H8.91064L11.1289 43.2373L13.084 43.0869L15.2646 42.8613L17.3325 42.5981L17.4453 42.5229V40.3047L17.4077 38.688L17.2949 38.5376L17.1445 38.5H8.0835ZM39.9663 42.9741L38.9888 43.3877L37.5601 43.9893L37.0713 44.1772L37.0337 44.2148V61.8481H40.0415V42.9741H39.9663ZM34.665 45.1172L32.2588 45.9443L29.8901 46.6963L27.5967 47.3354L25.0776 47.9746L25.04 48.0122V61.8481H34.7402V45.1172H34.665ZM22.709 48.501L20.0771 48.9897L19.7388 49.0649L19.7012 53.0127L19.6636 53.4639L19.438 53.8774L19.1748 54.103L18.9116 54.2158L18.7236 54.2534H18.4229L18.0469 54.1406L17.7461 53.915L17.5205 53.5391L17.4829 53.3887L17.4453 51.5464V49.4785L17.3701 49.4033L14.8887 49.7041L12.4448 49.9297L10.001 50.0801L8.12109 50.1553L7.74512 50.1929V61.8481H17.4077L17.4453 61.6226V59.9307L17.4829 57.7124L17.6333 57.3364L17.8213 57.1108L18.1221 56.9229L18.4229 56.8477H18.7236L19.0996 56.9604L19.4004 57.186L19.5884 57.4492L19.6636 57.6748L19.7012 57.938L19.7388 61.8481H22.7466V48.501H22.709ZM4.66211 64.1416L4.17334 64.2168L3.72217 64.4048L3.30859 64.668L2.93262 65.0439L2.59424 65.5703L2.40625 66.1343L2.36865 66.4351V69.3677L21.8818 69.4053H74.4434L74.5562 69.3677V66.3975L74.481 65.9463L74.293 65.4575L73.9546 64.9688L73.6914 64.7056L73.3154 64.4424L72.7515 64.2168L72.2627 64.1416H4.66211Z" fill="#0A7B07"/>
</svg>
