<svg width="77" height="77" viewBox="0 0 77 77" fill="none" xmlns="http://www.w3.org/2000/svg">
<g clip-path="url(#clip0_65_15)">
<path d="M0.789551 0H53.7646L54.1782 0.263184L54.4414 0.563965L54.5918 0.939941L54.6294 33.6123L55.1182 33.7251L55.7197 34.0259L56.1333 34.3267L56.4717 34.7026L56.8101 35.3042L56.9604 35.8306L57.0356 36.9961H63.0513V36.0938L63.1641 35.4922L63.3521 35.041L63.6904 34.5522L64.0664 34.1763L64.48 33.9131L64.8936 33.7251L65.4199 33.6123H67.7134L68.2397 33.7251L68.8413 34.0259L69.1421 34.2515L69.3677 34.4395L69.7061 34.8906L69.9316 35.3418L70.0444 35.7178L70.082 35.981V36.9961H72.6011L73.353 37.0713L74.1426 37.2969L74.7817 37.5977L75.3457 37.9736L75.7969 38.3872L76.0601 38.6504L76.3984 39.1392L76.6992 39.7031L76.9248 40.3423L77 40.3799V73.5786L76.9248 73.6162L76.7744 74.105L76.5112 74.6689L76.248 75.1201L75.8345 75.6089L75.3833 76.0225L74.8193 76.3984L74.0674 76.7368L73.165 77H0.827148L0.413574 76.7368L0.150391 76.436L0 76.1729V0.977539L0.225586 0.601562L0.413574 0.413574L0.601562 0.263184H0.676758L0.714355 0.187988L0.789551 0ZM2.44385 2.40625L2.40625 3.98535V74.5562H31.0181L30.9053 74.2178L30.7549 73.729L30.6421 73.1274L30.6045 72.1123V42.7861L30.6421 40.8311L30.7549 40.2295L30.9805 39.6279L31.2437 39.1392L31.6196 38.6128L32.146 38.0864L32.6348 37.748L33.1611 37.4473L33.8003 37.2217L34.2891 37.1089L34.9658 37.0337L36.8457 36.9961L36.8833 35.981L37.0337 35.3794L37.3345 34.7778L37.5977 34.4771V34.4019H37.6729V34.3267L37.8232 34.2515L38.2368 33.9507L38.8008 33.7251L39.1768 33.6499H41.4702L42.0342 33.7627L42.6357 34.0635L42.9741 34.3267L43.2749 34.6274L43.5757 35.1162L43.7637 35.605L43.8389 36.0186L43.8765 36.9961H49.9297L50.0049 35.9058L50.1553 35.3418L50.3809 34.8906L50.7192 34.4395L51.02 34.1763L51.5464 33.8755L52.1104 33.6875L52.1479 33.6499V2.40625H2.44385ZM39.4399 36.0562L39.3271 36.0938L39.2896 36.2817V41.1318L39.4399 41.2822H41.2822L41.395 41.1694L41.4326 41.019V36.2441L41.3198 36.0562H39.4399ZM52.5239 36.0562L52.4111 36.1689V41.1694L52.4487 41.2446L52.5615 41.2822H54.4038L54.5166 41.1694V36.1689L54.4414 36.0562H52.5239ZM65.6455 36.0562L65.5327 36.0938V41.207L65.6455 41.2822H67.4878L67.6382 41.1318V36.2065L67.6006 36.0938L67.5254 36.0562H65.6455ZM35.0786 39.4399L34.5522 39.5151L34.1387 39.6655L33.7627 39.8911L33.5371 40.0791L33.1987 40.5679L33.0483 41.0566V45.6812H74.5562V41.019L74.4058 40.5679L74.1802 40.2295L73.9922 40.0039L73.6162 39.7407L73.165 39.5527L72.8643 39.4775L72.4883 39.4399H70.082L70.0444 41.395L69.894 41.9966L69.6685 42.4478L69.3677 42.8613L69.0293 43.1621L68.5029 43.4629L67.9014 43.6509L67.6758 43.6885H65.3823L64.8184 43.5381L64.292 43.2749L63.916 42.9741L63.6152 42.6357L63.3521 42.2222L63.1641 41.6958L63.0889 41.2446L63.0513 39.4399H56.998L56.9604 40.8311L56.9229 41.4702L56.7725 42.0342L56.5093 42.5229L56.2085 42.8989L55.8701 43.1997L55.4941 43.4253L54.9678 43.6133L54.5918 43.6885H52.2983L51.6968 43.5381L51.1704 43.2749L50.7568 42.9365L50.7192 42.8613H50.644L50.5688 42.7109L50.3057 42.335L50.0801 41.8086L50.0049 41.4702L49.9673 40.7183V39.4775L49.9297 39.4399H43.8765L43.8389 41.2446L43.7261 41.8462L43.5381 42.2974L43.2373 42.7485L42.8613 43.1245L42.3726 43.4253L41.8462 43.6133L41.4702 43.6885H39.1768L38.5752 43.5381L38.0112 43.2373L37.6353 42.8989L37.3345 42.5605L37.0337 41.959L36.9209 41.6206L36.8833 41.3574L36.8457 39.4399H35.0786ZM33.0483 48.125V72.9771L33.1611 73.353L33.3867 73.729L33.6123 73.9922L33.9883 74.2554L34.4395 74.4434L34.8906 74.5562H72.7139L73.2402 74.4434L73.6914 74.2178L74.0298 73.9546L74.293 73.6538L74.481 73.2778L74.5562 72.9395V48.125H33.0483Z" fill="#0A7B07"/>
<path d="M9.6626 54.2534H21.957L22.8218 54.291L23.1226 54.4038L23.4609 54.667L23.6865 55.0054L23.7617 55.2686V55.7573L23.6113 56.1333L23.2729 56.5093L22.9346 56.6597L22.7842 56.6973L22.1826 56.7349H9.81299V67.187H21.3179L21.2803 63.6528L21.1299 63.8032H21.0547L21.0171 63.916L20.7163 64.1792L20.2275 64.6304L19.4756 65.3071L19.0244 65.6831L18.6484 65.8711L18.4604 65.9087H18.1221L17.7461 65.7959L17.4077 65.5327L14.6631 62.7881L14.3999 62.3745L14.3247 62.0361L14.3623 61.6602L14.5127 61.3218L14.7759 61.021L15.1143 60.7954L15.603 60.7202L15.979 60.7954L16.355 61.021L16.543 61.1714V61.2466H16.6182V61.3218L16.7686 61.397V61.4722L16.9189 61.5474V61.6226H16.9941V61.6978H17.0693V61.7729H17.1445V61.8481H17.2197V61.9233L17.3701 61.9985V62.0737H17.4453V62.1489H17.5205V62.2241H17.5957L17.8213 62.4873L17.8965 62.5249V62.6001L18.0469 62.6753L18.3101 62.9385L18.4604 62.9009L18.8364 62.5249L19.1372 62.2617L19.626 61.8105L20.002 61.4722L20.4531 61.0586L20.7539 60.7954L21.6562 59.9683L21.957 59.7051L22.8594 58.8779H22.9346V58.8027L23.2354 58.5396L23.6865 58.126L23.9873 57.8628L24.3257 57.5996L24.7017 57.4492H25.1904L25.5664 57.5996L25.8672 57.8252L26.0928 58.2012L26.168 58.4268V58.9155L25.9048 59.4419L25.4912 59.8555L25.1904 60.1187L24.6641 60.6074L24.3633 60.8706L23.9121 61.2842L23.7993 61.3218L23.7617 68.6157L23.6113 69.0293L23.3857 69.3301L23.085 69.5181L22.8594 69.5933L22.5586 69.6309H8.45947L8.12109 69.5557L7.82031 69.3677L7.55713 69.1045L7.40674 68.7661L7.36914 68.6157V55.231L7.51953 54.855L7.82031 54.5166L8.27148 54.291L9.6626 54.2534Z" fill="#0A7B07"/>
<path d="M9.6626 30.7925H21.957L22.7842 30.8301L23.1226 30.9429L23.4609 31.2061L23.6865 31.5444L23.7617 31.8076V32.2964L23.6113 32.6724L23.2729 33.0483L22.9346 33.1987L22.7842 33.2363L22.2202 33.2739H9.81299V43.7261H21.3179L21.2803 40.1919L21.0171 40.4551L20.7163 40.7183L20.2275 41.1694L19.0996 42.1846L18.6484 42.4102L18.498 42.4478H18.0845L17.6709 42.2974L17.2197 41.8838L14.6631 39.3271L14.3999 38.9136L14.3247 38.5752L14.3623 38.1992L14.5879 37.748L14.8511 37.4849L15.1143 37.3345L15.2646 37.2969H15.8286L16.2046 37.4473L16.5806 37.7856L16.8438 38.0112L17.0693 38.2744L17.2949 38.4624L17.5205 38.7256L17.7461 38.9136L17.9717 39.1768L18.1973 39.3647L18.2725 39.4775L18.4604 39.4399L18.7612 39.1392L19.062 38.876L19.5508 38.4248L20.002 38.0112L20.3027 37.748L21.2051 36.9209H21.2803V36.8457L21.5811 36.5825L21.9946 36.2065L22.2954 35.9434L22.897 35.3794L24.0249 34.3643L24.3257 34.1387L24.7017 33.9883H25.1904L25.5664 34.1387L25.8672 34.3643L26.0928 34.7402L26.168 34.9658V35.4546L26.0176 35.8306L25.6792 36.2065L25.4912 36.3945H25.416V36.4697L25.1152 36.7329L24.6641 37.1465L24.3633 37.4097L23.9121 37.8232L23.7993 37.936L23.7617 45.1924L23.6113 45.5684L23.3857 45.8691L23.085 46.0571L22.8594 46.1323L22.5962 46.1699H8.45947L8.12109 46.0947L7.74512 45.8691L7.51953 45.5684L7.36914 45.1548V31.77L7.51953 31.394L7.82031 31.0557L8.27148 30.8301L9.6626 30.7925Z" fill="#0A7B07"/>
<path d="M8.30908 7.36914H22.7842L23.1602 7.51953L23.4609 7.74512L23.6865 8.0835L23.7617 8.34668V8.83545L23.6113 9.21143L23.2729 9.5874L22.9346 9.73779L22.7842 9.77539L22.2202 9.81299H9.81299V20.2651H21.3179L21.2803 16.731L20.9795 17.0317L20.6787 17.2949L20.1523 17.7837L19.8516 18.0469L19.7012 18.1221V18.1973L19.4004 18.4604L18.9868 18.7988L18.686 18.9492L18.498 18.9868H18.0469L17.6709 18.8364L17.2197 18.4229L14.6255 15.8286L14.3999 15.4526L14.3247 15.1143L14.3623 14.7383L14.5879 14.2871L14.9263 13.9863L15.3022 13.8359H15.8286L16.2046 13.9863L16.6558 14.3999L17.9717 15.7158L18.1973 15.9038L18.2725 16.0166L18.4604 15.979L18.7236 15.7158L19.0244 15.4526L19.5508 14.9639H19.626V14.8887L19.9268 14.6255L20.3779 14.2119L20.6787 13.9487L21.2051 13.46L21.5059 13.1968L21.9946 12.7456L22.2954 12.4824L22.7842 12.0312L23.2354 11.6177L23.6489 11.2417L23.9497 10.9785L24.3257 10.6777L24.7017 10.5273H25.1904L25.5664 10.6777L25.8672 10.9033L26.0928 11.2793L26.168 11.5049V11.9937L26.0176 12.3696L25.6792 12.7456L25.416 13.0088L25.1152 13.272L24.6265 13.7231L24.3257 13.9863L23.8745 14.3999L23.7993 14.4751L23.7617 21.7314L23.6113 22.1074L23.3857 22.4082L23.085 22.5962L22.897 22.6714L22.6714 22.709H8.38428L8.0459 22.5962L7.70752 22.3706L7.48193 22.0698L7.36914 21.7314V8.30908L7.51953 7.93311L7.78271 7.63232L8.15869 7.40674L8.30908 7.36914Z" fill="#0A7B07"/>
<path d="M39.0264 51.772H45.4556L45.8691 51.8472L46.2451 52.1104L46.5083 52.4487L46.6211 52.8247V59.2915L46.5459 59.6299L46.3203 59.9683L46.0195 60.2314L45.5308 60.3818H39.0264L38.6128 60.2314L38.2744 59.9307L38.0864 59.5923L38.0112 59.4043L37.9736 58.126V55.9829L38.0112 52.7871L38.124 52.4487L38.3496 52.1479L38.6128 51.9224L39.0264 51.772ZM40.4551 54.2158V57.938H44.1772V54.2158H40.4551Z" fill="#0A7B07"/>
<path d="M50.4185 51.772H56.8477L57.2236 51.8472L57.5996 52.0728L57.8628 52.4111L57.9756 52.6743L58.0132 52.8623V59.2163L57.938 59.5923L57.7124 59.9683L57.4116 60.2314L56.9229 60.3818H50.4185L50.0801 60.269L49.8545 60.1187L49.5537 59.7803L49.4033 59.4043L49.3657 59.0659V53.1255L49.4409 52.5991L49.6289 52.2607L49.7041 52.1479H49.7793V52.0728L50.1553 51.8472L50.4185 51.772ZM51.8472 54.2158V57.938H55.5317L55.5693 57.8628V54.2158H51.8472Z" fill="#0A7B07"/>
<path d="M39.064 62.2993H45.418L45.8315 62.3745L46.2075 62.6001L46.4331 62.8633L46.5835 63.1641L46.6211 63.3521V69.8564L46.5083 70.2324L46.2827 70.5332L46.0195 70.7588L45.7563 70.8716L45.5684 70.9092H38.9888L38.6128 70.7588L38.312 70.4956L38.0864 70.1572L38.0112 69.9316L37.9736 68.4277V66.4727L38.0112 63.3145L38.124 62.9761L38.3872 62.6377L38.5752 62.4873L38.876 62.3369L39.064 62.2993ZM40.4551 64.7432V68.4653L43.3125 68.5029H44.1772V64.7432H40.4551Z" fill="#0A7B07"/>
<path d="M50.4561 62.2993H56.8101L57.2236 62.3745L57.5996 62.6001L57.8628 62.9385L57.9756 63.2017L58.0132 63.3896V69.7437L57.938 70.1196L57.75 70.458L57.4116 70.7588L57.1108 70.8716L56.9229 70.9092H50.3809L50.0425 70.7964L49.7041 70.5332L49.4785 70.1948L49.4033 69.9316L49.3657 69.5933V63.5776L49.4409 63.1265L49.6665 62.7505L50.0049 62.4497L50.2681 62.3369L50.4561 62.2993ZM51.8472 64.7432V68.4653L54.667 68.5029H55.4941L55.5693 68.3149V64.7432H51.8472Z" fill="#0A7B07"/>
<path d="M61.9985 51.772H68.4277L68.8413 51.8472L69.1797 52.0728L69.4429 52.3735L69.5933 52.7495V59.4043L69.4429 59.7803L69.2549 60.0435L68.9165 60.269L68.5029 60.3818H62.0361L61.6602 60.269L61.3218 60.0059L61.0962 59.6675L60.9834 59.3291V52.8247L61.0962 52.4863L61.3218 52.1479L61.585 51.9224L61.9985 51.772ZM63.4272 54.2158V57.938H67.1494V54.2158H63.4272Z" fill="#0A7B07"/>
<path d="M62.0361 62.2993H68.4277L68.8413 62.3745L69.1797 62.6001L69.4429 62.9009L69.5933 63.2769V69.9316L69.4429 70.3076L69.2173 70.6084L68.9541 70.7964L68.5405 70.9092H61.9985L61.6602 70.7964L61.3594 70.5708L61.1338 70.27L61.021 70.0444L60.9834 69.8564V63.3521L61.0962 63.0137L61.3218 62.6753L61.6226 62.4497L62.0361 62.2993ZM63.4272 64.7432V68.4653L67.0742 68.5029L67.1494 68.4653V64.7432H63.4272Z" fill="#0A7B07"/>
<path d="M31.8076 13.7983H47.3354L47.8618 13.8735L48.2378 14.0991L48.501 14.3999L48.6514 14.7383L48.689 15.1143L48.5762 15.5654L48.313 15.9038L48.0122 16.1294L47.5986 16.2422H31.582L31.1685 16.0918L30.8677 15.8286L30.6797 15.4902L30.6045 15.3022V14.7759L30.7549 14.3999L31.0181 14.0991L31.394 13.8735L31.8076 13.7983Z" fill="#0A7B07"/>
<path d="M31.5444 7.36914H47.6738L48.0122 7.48193L48.3506 7.74512L48.5762 8.0835L48.6514 8.27148L48.689 8.64746L48.5762 9.09863L48.313 9.43701L48.0122 9.6626L47.6738 9.77539L46.8091 9.81299H31.9956L31.394 9.73779L31.0181 9.51221L30.7925 9.24902L30.6045 8.87305V8.30908L30.7549 7.93311L31.0181 7.63232L31.394 7.40674L31.5444 7.36914Z" fill="#0A7B07"/>
</g>
<defs>
<clipPath id="clip0_65_15">
<rect width="77" height="77" fill="white"/>
</clipPath>
</defs>
</svg>
