<svg width="265" height="36" viewBox="0 0 265 36" fill="none" xmlns="http://www.w3.org/2000/svg">
<path fill-rule="evenodd" clip-rule="evenodd" d="M243.156 11.0408V12.9216C240.703 12.9216 241.19 12.8491 241.19 15.9778L243.156 16.2128V27.2622H247.088V16.2128C250.975 16.2128 250.364 16.5911 250.364 13.6268C251.064 14.4933 255.607 26.6835 255.607 26.792C255.607 27.7785 254.421 28.9079 253.859 28.9079C252.988 28.9079 252.452 28.3974 251.675 28.2026L250.146 31.2588C253.236 33.4858 256.724 33.3091 258.663 29.6102C259.062 28.8478 259.441 27.658 259.76 26.7944L263.972 15.3409C264.365 14.341 264.597 13.3563 265 12.4514H260.85C260.262 15.1653 258.136 20.2303 258.01 21.8551L255.98 17.2218C255.658 16.3354 255.457 15.6817 255.139 14.8361C254.886 14.1632 254.591 13.1112 254.296 12.4514C247.86 12.4514 252.062 12.9216 247.088 12.9216C247.088 10.4741 247.35 10.3355 249.054 10.3355C249.847 10.3355 249.82 10.6145 250.583 10.8057L251.89 7.74777C248.159 5.05696 243.156 7.22679 243.156 11.0408Z" fill="#656565"/>
<path fill-rule="evenodd" clip-rule="evenodd" d="M214.359 27.2622H218.291C218.818 24.8275 220.815 19.3491 220.912 18.0937H221.349C221.463 19.5634 223.485 25.0181 223.97 27.2622H227.902C228.367 26.3163 232.846 13.4892 232.927 12.4514H228.995L226.479 21.2639C226.159 22.3891 226.683 21.7363 225.936 22.3253C225.868 21.4398 225.52 20.6638 225.307 19.9466L223.315 12.4514H219.165C218.415 14.1325 216.977 21.6384 216.106 22.3253C215.967 20.5252 213.518 14.0389 213.485 12.4514H209.116C210.141 14.5353 212.901 24.2983 214.359 27.2622Z" fill="#656565"/>
<path fill-rule="evenodd" clip-rule="evenodd" d="M187.531 26.5569C187.531 27.6216 188.651 27.2621 191.026 27.2621C193.017 27.2621 189.826 23.9808 193.429 21.3848L196.487 27.2621H201.293C201.113 26.538 200.515 25.6662 200.112 25.0067C199.616 24.1954 199.233 23.5211 198.764 22.696C198.282 21.849 197.965 21.3478 197.509 20.5195C197.044 19.6733 196.467 19.0111 196.268 18.0936L201.074 12.4513C197.125 12.4513 196.549 11.9013 195.268 13.7252C194.517 14.7944 192.621 16.9458 191.681 17.6233V6.80908H187.531V26.5569Z" fill="#656565"/>
<path fill-rule="evenodd" clip-rule="evenodd" d="M173.538 22.4388C173.538 25.6218 176.603 27.8292 176.603 25.0309C176.603 22.0106 173.538 20.3806 173.538 22.4388Z" fill="#656565"/>
<path fill-rule="evenodd" clip-rule="evenodd" d="M163.681 13.3357C165.338 15.9722 169.026 15.9523 167.569 13.6345C165.997 11.1327 162.609 11.6309 163.681 13.3357Z" fill="#656565"/>
<path fill-rule="evenodd" clip-rule="evenodd" d="M163.377 19.4511C166.232 20.284 169.013 17.6776 166.504 16.9453C163.795 16.1549 161.531 18.9125 163.377 19.4511Z" fill="#656565"/>
<path fill-rule="evenodd" clip-rule="evenodd" d="M170.492 22.3274C168.717 24.8741 169.94 28.6192 171.499 26.3803C173.183 23.9637 171.639 20.6806 170.492 22.3274Z" fill="#656565"/>
<path fill-rule="evenodd" clip-rule="evenodd" d="M167.524 20.3677C164.828 21.6758 164.218 25.5905 166.588 24.4405C169.147 23.1993 169.268 19.5219 167.524 20.3677Z" fill="#656565"/>
<path fill-rule="evenodd" clip-rule="evenodd" d="M180.947 26.4146C178.682 28.9537 175.496 30.5344 171.967 30.5344C165.091 30.5344 159.516 24.5355 159.516 17.1355C159.516 13.3812 160.952 9.9882 163.264 7.55555L160.183 4C156.988 7.32054 155 11.9779 155 17.1355C155 27.22 162.596 35.3951 171.967 35.3951C176.686 35.3951 180.955 33.3204 184.031 29.9731L180.947 26.4146Z" fill="#656565"/>
<path fill-rule="evenodd" clip-rule="evenodd" d="M203.428 27.2622L207.562 27.2565L207.578 12.4514H203.428V27.2622Z" fill="#656565"/>
<path fill-rule="evenodd" clip-rule="evenodd" d="M205.503 5.9895C205.789 5.9895 206.071 6.04997 206.335 6.16747C206.598 6.28497 206.838 6.45719 207.04 6.6743C207.241 6.89142 207.401 7.14917 207.511 7.43284C207.62 7.71651 207.676 8.02054 207.676 8.32758C207.676 8.79001 207.549 9.24205 207.31 9.62654C207.071 10.011 206.732 10.3107 206.335 10.4877C205.938 10.6646 205.501 10.7109 205.08 10.6207C204.658 10.5305 204.271 10.3078 203.967 9.98083C203.663 9.65385 203.457 9.23725 203.373 8.78371C203.289 8.33017 203.332 7.86006 203.496 7.43284C203.661 7.00561 203.939 6.64045 204.296 6.38354C204.654 6.12663 205.074 5.98951 205.503 5.9895Z" fill="#656565"/>
<path fill-rule="evenodd" clip-rule="evenodd" d="M234.826 27.2622L238.961 27.2565L238.977 12.4514H234.826V27.2622Z" fill="#656565"/>
<path fill-rule="evenodd" clip-rule="evenodd" d="M236.901 5.9895C237.187 5.9895 237.469 6.04998 237.733 6.16748C237.996 6.28498 238.236 6.4572 238.437 6.67431C238.639 6.89142 238.799 7.14917 238.908 7.43284C239.018 7.71651 239.074 8.02054 239.074 8.32758C239.074 8.79001 238.946 9.24205 238.708 9.62654C238.469 10.011 238.13 10.3107 237.733 10.4877C237.336 10.6646 236.899 10.7109 236.477 10.6207C236.056 10.5305 235.669 10.3078 235.365 9.98083C235.061 9.65384 234.854 9.23724 234.771 8.7837C234.687 8.33016 234.73 7.86005 234.894 7.43283C235.059 7.0056 235.337 6.64045 235.694 6.38354C236.052 6.12663 236.472 5.9895 236.901 5.9895Z" fill="#656565"/>
<path d="M128.335 31.0119C127.978 31.0119 127.716 30.9008 127.551 30.6786C127.385 30.4563 127.302 30.1587 127.302 29.7854C127.302 29.4833 127.349 29.2384 127.441 29.0505C127.533 28.8627 127.655 28.7277 127.807 28.6454C127.96 28.5632 128.131 28.522 128.322 28.522C128.456 28.522 128.579 28.5398 128.691 28.5754C128.803 28.611 128.914 28.6656 129.026 28.7394L128.851 29.1261C128.694 29.0131 128.525 28.9566 128.341 28.9566C127.969 28.9566 127.783 29.2231 127.783 29.7559C127.783 30.0211 127.835 30.2225 127.938 30.36C128.042 30.4975 128.188 30.5663 128.378 30.5663C128.475 30.5663 128.56 30.5522 128.633 30.5239C128.705 30.4957 128.782 30.4557 128.861 30.4042L129.043 30.7725C128.924 30.8511 128.809 30.9106 128.696 30.9512C128.583 30.9917 128.463 31.0119 128.335 31.0119ZM117.154 29.7043C117.246 29.7314 117.324 29.7737 117.386 29.8314C117.449 29.8891 117.495 29.9548 117.524 30.0285C117.554 30.1022 117.569 30.1795 117.569 30.2605C117.569 30.484 117.499 30.6565 117.358 30.7781C117.218 30.8996 117.017 30.9604 116.756 30.9604H115.921V28.5736H116.7C116.869 28.5736 117.012 28.6 117.13 28.6527C117.247 28.7056 117.335 28.7792 117.394 28.8737C117.454 28.9683 117.483 29.0794 117.483 29.2071C117.483 29.3127 117.456 29.4103 117.401 29.4999C117.346 29.5896 117.264 29.6577 117.154 29.7043ZM116.375 28.9861V29.5423H116.637C116.881 29.5423 117.003 29.4453 117.003 29.2513C117.003 29.1654 116.976 29.0997 116.921 29.0542C116.867 29.0088 116.788 28.9861 116.684 28.9861H116.375ZM116.71 30.5405C116.846 30.5405 116.943 30.5129 117.001 30.4576C117.059 30.4024 117.089 30.3281 117.089 30.2347C117.089 30.1439 117.058 30.0714 116.998 30.0174C116.938 29.9634 116.846 29.9364 116.723 29.9364H116.375V30.5405H116.71ZM119.033 28.5736L119.799 30.9309V30.9604H119.302L119.131 30.3895H118.342L118.174 30.9604H117.684V30.9309L118.45 28.5736H119.033ZM118.467 29.9696H119.006L118.733 29.0598L118.467 29.9696ZM121.967 28.5736V30.9604H121.46L120.79 29.848C120.733 29.7498 120.685 29.6644 120.645 29.592C120.606 29.5196 120.567 29.4379 120.529 29.3471V30.9604H120.075V28.5736H120.575L121.305 29.7964C121.314 29.8112 121.334 29.8449 121.364 29.8977C121.395 29.9505 121.423 30.0003 121.449 30.0469C121.474 30.0936 121.495 30.139 121.513 30.1832V28.5736H121.967ZM123.355 31.0119C122.998 31.0119 122.736 30.9008 122.57 30.6786C122.405 30.4563 122.322 30.1587 122.322 29.7854C122.322 29.4833 122.368 29.2384 122.46 29.0505C122.552 28.8627 122.675 28.7277 122.827 28.6454C122.979 28.5632 123.151 28.522 123.342 28.522C123.476 28.522 123.598 28.5398 123.71 28.5754C123.822 28.611 123.934 28.6656 124.046 28.7394L123.87 29.1261C123.714 29.0131 123.544 28.9566 123.361 28.9566C122.989 28.9566 122.802 29.2231 122.802 29.7559C122.802 30.0211 122.854 30.2225 122.958 30.36C123.062 30.4975 123.208 30.5663 123.398 30.5663C123.495 30.5663 123.579 30.5522 123.652 30.5239C123.725 30.4957 123.801 30.4557 123.88 30.4042L124.062 30.7725C123.944 30.8511 123.828 30.9106 123.715 30.9512C123.602 30.9917 123.482 31.0119 123.355 31.0119ZM125.237 31.0119C125.009 31.0119 124.815 30.9592 124.656 30.8535C124.497 30.748 124.377 30.6013 124.296 30.4134C124.215 30.2255 124.174 30.0076 124.174 29.7596C124.174 29.4846 124.223 29.2544 124.322 29.069C124.421 28.8836 124.552 28.7461 124.715 28.6565C124.879 28.5668 125.06 28.522 125.26 28.522C125.488 28.522 125.681 28.5748 125.84 28.6804C125.999 28.786 126.119 28.9327 126.199 29.1205C126.279 29.3084 126.319 29.5263 126.319 29.7744C126.319 30.0494 126.27 30.2796 126.173 30.4649C126.075 30.6504 125.944 30.7879 125.781 30.8775C125.618 30.9671 125.436 31.0119 125.237 31.0119ZM125.237 30.5847C125.366 30.5847 125.476 30.5522 125.567 30.4871C125.658 30.422 125.726 30.3287 125.771 30.2071C125.816 30.0856 125.839 29.9426 125.839 29.778C125.839 29.5177 125.789 29.3146 125.691 29.1685C125.592 29.0223 125.448 28.9493 125.26 28.9493C125.062 28.9493 124.912 29.0211 124.809 29.1648C124.706 29.3084 124.654 29.5055 124.654 29.7559C124.654 30.0162 124.704 30.2194 124.802 30.3655C124.901 30.5116 125.046 30.5847 125.237 30.5847ZM129.77 30.5331H130.756V30.9604H129.316V28.5736H130.74V28.9972H129.77V29.5349H130.608L130.555 29.9548H129.77V30.5331ZM133.026 28.5736V30.9604H132.52L131.85 29.848C131.792 29.7498 131.744 29.6644 131.704 29.592C131.665 29.5196 131.626 29.4379 131.589 29.3471V30.9604H131.135V28.5736H131.635L132.365 29.7964C132.373 29.8112 132.393 29.8449 132.424 29.8977C132.454 29.9505 132.482 30.0003 132.508 30.0469C132.533 30.0936 132.555 30.139 132.572 30.1832V28.5736H133.026ZM135.115 28.5736V29.0192H134.437V30.9604H133.983V29.0192H133.303V28.5736H135.115ZM137.082 30.9309V30.9604H136.56L136.025 30.0911H135.845V30.9604H135.391V28.5736H136.105C136.294 28.5736 136.451 28.6061 136.577 28.6712C136.703 28.7363 136.797 28.8246 136.858 28.9364C136.92 29.0481 136.951 29.1752 136.951 29.3176C136.951 29.4846 136.913 29.6288 136.839 29.7504C136.764 29.8719 136.655 29.9622 136.51 30.0211L137.082 30.9309ZM135.845 29.697H136.05C136.185 29.697 136.288 29.6687 136.361 29.6123C136.434 29.5558 136.47 29.4625 136.47 29.3324C136.47 29.2194 136.438 29.1347 136.373 29.0782C136.308 29.0217 136.217 28.9935 136.101 28.9935H135.845V29.697ZM138.523 28.5736L139.289 30.9309V30.9604H138.793L138.622 30.3895H137.832L137.664 30.9604H137.174V30.9309L137.941 28.5736H138.523ZM137.957 29.9696H138.497L138.224 29.0598L137.957 29.9696ZM140.02 30.511H141V30.9604H139.566V28.5736H140.02V30.511Z" fill="#656565"/>
<path fill-rule="evenodd" clip-rule="evenodd" d="M59.2704 14.4178L62.6025 10.9442H65.0168C65.1704 10.9442 65.3143 10.9699 65.4385 11.0203C65.5478 11.0646 65.6443 11.1278 65.7204 11.2089C65.7204 11.2229 70.0197 15.7083 70.4763 16.1843C70.9029 16.6289 71.4671 16.851 72.0322 16.851C72.5955 16.8508 73.1586 16.6286 73.5855 16.1843C75.1752 14.5272 76.771 12.8765 78.3505 11.2089C78.4265 11.1278 78.5231 11.0646 78.6323 11.0203C78.7566 10.9699 78.9004 10.9442 79.054 10.9442H81.4623L84.7944 14.4178C86.4883 16.1836 86.4883 19.0732 84.7944 20.839L81.4623 24.3126H79.054C78.9004 24.3126 78.7566 24.2869 78.6323 24.2366C78.5231 24.1922 78.4265 24.129 78.3505 24.0479C76.771 22.3803 75.1752 20.7296 73.5855 19.0725C73.1586 18.6282 72.5955 18.406 72.0322 18.4058C71.4671 18.4058 70.9029 18.6279 70.4763 19.0725C70.0197 19.5485 65.7204 24.034 65.7204 24.0479C65.6443 24.129 65.5478 24.1922 65.4385 24.2366C65.3143 24.2869 65.1704 24.3126 65.0168 24.3126H62.6025L59.2704 20.839C57.5765 19.0732 57.5765 16.1836 59.2704 14.4178ZM64.094 9.38938L68.9526 4.32442C70.6465 2.55853 73.4183 2.55853 75.1123 4.32442L79.9709 9.38938H79.054C78.4019 9.38938 77.7463 9.63623 77.2857 10.1262C77.2778 10.1182 72.9363 14.6686 72.5354 15.0865C72.3965 15.2303 72.2141 15.3023 72.0322 15.3023C71.8516 15.3023 71.6698 15.2299 71.5308 15.085C71.0897 14.6253 66.786 10.1254 66.7851 10.1262C66.3246 9.63623 65.669 9.38938 65.0168 9.38938H64.094ZM79.9709 25.8675L75.1123 30.9324C73.4183 32.6982 70.6465 32.6982 68.9526 30.9324L64.094 25.8675H65.0168C65.669 25.8675 66.3246 25.6206 66.7851 25.1306C66.786 25.1314 71.0897 20.6316 71.5308 20.1718C71.6698 20.0269 71.8516 19.9545 72.0322 19.9545C72.2141 19.9545 72.3965 20.0265 72.5354 20.1703C72.9363 20.5882 77.2778 25.1386 77.2857 25.1306C77.7463 25.6206 78.4019 25.8675 79.054 25.8675H79.9709Z" fill="#656565"/>
<path d="M131.042 16.043C130.615 16.4879 130.051 16.7105 129.487 16.7107C128.923 16.7105 128.359 16.4879 127.931 16.043C126.339 14.3835 124.741 12.7304 123.16 11.0604C123.083 10.9792 122.987 10.9159 122.877 10.8715C122.753 10.8211 122.609 10.7953 122.455 10.7953H118.731C118.319 10.7953 117.984 10.4468 117.984 10.0168C117.984 9.58685 118.319 9.23828 118.731 9.23828H122.455C123.108 9.23828 123.765 9.48549 124.226 9.97616C124.234 9.96816 128.582 14.5252 128.983 14.9437C129.122 15.0876 129.305 15.1598 129.487 15.1598C129.669 15.1598 129.852 15.0876 129.991 14.9437C130.392 14.5252 134.74 9.96816 134.748 9.97616C135.209 9.48549 135.866 9.23828 136.519 9.23828H140.243C140.655 9.23828 140.99 9.58685 140.99 10.0168C140.99 10.4468 140.655 10.7953 140.243 10.7953H136.519C136.365 10.7953 136.221 10.8211 136.097 10.8715C135.987 10.9159 135.89 10.9792 135.814 11.0604C134.233 12.7304 132.634 14.3835 131.042 16.043ZM109.672 10.7953C109.259 10.7953 108.925 10.4468 108.925 10.0168C108.925 9.58685 109.259 9.23828 109.672 9.23828C111.173 9.23828 112.537 9.87813 113.526 10.9088C114.515 11.9395 115.128 13.362 115.128 14.927V24.9617C115.128 25.3916 114.794 25.7402 114.382 25.7402C113.969 25.7402 113.635 25.3916 113.635 24.9617V14.927C113.635 13.7917 113.189 12.7589 112.47 12.0096C111.751 11.2605 110.761 10.7953 109.672 10.7953ZM95.5702 25.7402C95.1577 25.7402 94.8234 25.3916 94.8234 24.9617C94.8234 24.5317 95.1577 24.1831 95.5702 24.1831H102.701C103.79 24.1831 104.781 23.7181 105.499 22.9689C106.218 22.2198 106.664 21.1869 106.664 20.0515V14.927C106.664 13.7916 106.218 12.7588 105.499 12.0096C104.781 11.2604 103.79 10.7953 102.701 10.7953H95.5702C94.4811 10.7953 93.4904 11.2604 92.7717 12.0096C92.053 12.7588 91.6068 13.7916 91.6068 14.927V32.1361C91.6068 32.5661 91.2725 32.9147 90.86 32.9147C90.4476 32.9147 90.1132 32.5661 90.1132 32.1361V14.927C90.1132 13.3619 90.727 11.9394 91.7157 10.9088C92.7044 9.87806 94.0689 9.23828 95.5702 9.23828H102.701C104.202 9.23828 105.567 9.87806 106.555 10.9087C107.544 11.9394 108.158 13.3618 108.158 14.927V20.0515C108.158 21.6166 107.544 23.0391 106.555 24.0697C105.567 25.1004 104.202 25.7402 102.701 25.7402H95.5702ZM140.243 25.7402C140.655 25.7402 140.99 25.3916 140.99 24.9617C140.99 24.5317 140.655 24.1831 140.243 24.1831H136.519C136.365 24.1831 136.221 24.1574 136.097 24.107C135.987 24.0626 135.89 23.9993 135.814 23.9181C134.233 22.248 132.634 20.595 131.042 18.9354C130.615 18.4905 130.051 18.2679 129.487 18.2678C128.923 18.2679 128.359 18.4905 127.931 18.9354C126.339 20.595 124.741 22.248 123.16 23.9181C123.083 23.9993 122.987 24.0626 122.877 24.107C122.753 24.1574 122.609 24.1831 122.455 24.1831H118.731C118.319 24.1831 117.984 24.5317 117.984 24.9617C117.984 25.3916 118.319 25.7402 118.731 25.7402H122.455C123.108 25.7402 123.765 25.493 124.226 25.0023C124.234 25.0103 128.582 20.4533 128.983 20.0348C129.122 19.8908 129.305 19.8187 129.487 19.8187C129.669 19.8187 129.852 19.8908 129.991 20.0348C130.392 20.4533 134.74 25.0103 134.748 25.0023C135.209 25.493 135.866 25.7402 136.519 25.7402H140.243Z" fill="#656565"/>
<path d="M95.5786 28.7014C95.7693 28.7014 95.9279 28.7326 96.0543 28.7951C96.1807 28.8575 96.2749 28.9425 96.3371 29.05C96.3992 29.1574 96.4302 29.2817 96.4302 29.4227C96.4302 29.573 96.3975 29.7065 96.3326 29.8233C96.2678 29.94 96.1696 30.0313 96.0382 30.0972C95.9068 30.1631 95.7471 30.1961 95.5587 30.1961H95.2825V30.9486H94.8235V28.7014H95.5786ZM112.115 29.766C112.208 29.7915 112.286 29.8313 112.349 29.8857C112.413 29.94 112.459 30.0019 112.489 30.0712C112.519 30.1406 112.534 30.2134 112.534 30.2897C112.534 30.5001 112.463 30.6625 112.321 30.7769C112.179 30.8914 111.976 30.9486 111.712 30.9486H110.867V28.7014H111.656C111.827 28.7014 111.971 28.7263 112.09 28.7759C112.209 28.8257 112.298 28.895 112.358 28.984C112.418 29.073 112.448 29.1777 112.448 29.2979C112.448 29.3973 112.42 29.4892 112.364 29.5736C112.309 29.658 112.226 29.7221 112.115 29.766ZM111.326 29.0898V29.6135H111.592C111.839 29.6135 111.962 29.5222 111.962 29.3395C111.962 29.2586 111.934 29.1967 111.879 29.1539C111.824 29.1112 111.745 29.0898 111.639 29.0898H111.326ZM111.665 30.5532C111.803 30.5532 111.901 30.5272 111.96 30.4752C112.019 30.4232 112.048 30.3533 112.048 30.2654C112.048 30.1799 112.018 30.1116 111.957 30.0608C111.896 30.0099 111.803 29.9845 111.679 29.9845H111.326V30.5532H111.665ZM114.603 28.7014V28.7292L113.805 30.0122V30.9486H113.346V30.0261L112.567 28.7292V28.7014H113.1L113.585 29.5684L114.091 28.7014H114.603ZM95.5132 29.8007C95.6513 29.8007 95.7577 29.7736 95.8325 29.7192C95.9074 29.6649 95.9445 29.5707 95.9445 29.4366C95.9445 29.3233 95.9112 29.2383 95.8442 29.1817C95.7776 29.1251 95.6845 29.0967 95.5642 29.0967H95.2825V29.8007H95.5132ZM97.7009 30.9971C97.4703 30.9971 97.2746 30.9474 97.1138 30.848C96.953 30.7486 96.8315 30.6105 96.7495 30.4336C96.6675 30.2567 96.6264 30.0515 96.6264 29.8181C96.6264 29.5591 96.6763 29.3424 96.7762 29.1678C96.8759 28.9933 97.0085 28.8638 97.1736 28.7794C97.3389 28.695 97.5224 28.6528 97.7242 28.6528C97.9549 28.6528 98.1506 28.7026 98.3113 28.802C98.4721 28.9014 98.593 29.0395 98.6739 29.2164C98.7549 29.3932 98.7954 29.5984 98.7954 29.832C98.7954 30.0908 98.746 30.3076 98.6473 30.4821C98.5486 30.6567 98.4167 30.7862 98.2514 30.8706C98.0863 30.9549 97.9027 30.9971 97.7009 30.9971ZM97.7009 30.5949C97.8318 30.5949 97.9432 30.5642 98.0352 30.503C98.1273 30.4417 98.196 30.3538 98.2415 30.2394C98.287 30.1249 98.3097 29.9903 98.3097 29.8354C98.3097 29.5903 98.2598 29.399 98.16 29.2615C98.0602 29.1239 97.9149 29.0551 97.7242 29.0551C97.5246 29.0551 97.3727 29.1228 97.2684 29.258C97.1642 29.3932 97.1121 29.5788 97.1121 29.8146C97.1121 30.0596 97.162 30.2509 97.2618 30.3885C97.3616 30.5261 97.508 30.5949 97.7009 30.5949ZM101.892 28.7014V28.7292L101.34 30.9486H100.755L100.489 29.7175C100.458 29.5811 100.43 29.4158 100.405 29.2216C100.381 29.4158 100.353 29.5811 100.322 29.7175L100.063 30.9486H99.4773L98.9218 28.7292V28.7014H99.4041L99.6803 29.9186C99.6958 29.9834 99.7124 30.0689 99.7301 30.1752C99.7479 30.2816 99.7634 30.3868 99.7767 30.4908C99.8122 30.2527 99.8455 30.062 99.8765 29.9186L100.149 28.7014H100.685L100.951 29.8943C100.991 30.0816 101.026 30.2816 101.057 30.4943C101.071 30.3972 101.087 30.2943 101.106 30.1857C101.125 30.077 101.143 29.9799 101.161 29.8943L101.417 28.7014H101.892ZM102.641 30.5463H103.639V30.9486H102.182V28.7014H103.622V29.1003H102.641V29.6065H103.489L103.435 30.0019H102.641V30.5463ZM105.731 30.9208V30.9486H105.203L104.662 30.1302H104.48V30.9486H104.021V28.7014H104.743C104.934 28.7014 105.093 28.732 105.221 28.7933C105.348 28.8546 105.443 28.9378 105.505 29.043C105.567 29.1482 105.598 29.2678 105.598 29.4019C105.598 29.5591 105.561 29.6949 105.485 29.8094C105.41 29.9238 105.299 30.0088 105.152 30.0643L105.731 30.9208ZM104.48 29.7591H104.688C104.824 29.7591 104.928 29.7325 105.002 29.6794C105.076 29.6262 105.113 29.5384 105.113 29.4158C105.113 29.3095 105.08 29.2297 105.014 29.1765C104.948 29.1233 104.856 29.0967 104.739 29.0967H104.48V29.7591ZM106.48 30.5463H107.478V30.9486H106.021V28.7014H107.461V29.1003H106.48V29.6065H107.328L107.274 30.0019H106.48V30.5463ZM108.579 28.7014C108.951 28.7014 109.241 28.7864 109.447 28.9563C109.653 29.1263 109.756 29.4158 109.756 29.825C109.756 30.0747 109.702 30.2839 109.593 30.4527C109.485 30.6214 109.34 30.7463 109.159 30.8272C108.979 30.9081 108.78 30.9486 108.562 30.9486H107.86V28.7014H108.579ZM108.472 30.5255C108.662 30.5255 108.813 30.5064 108.927 30.4683C109.041 30.4301 109.126 30.3602 109.184 30.2585C109.242 30.1568 109.271 30.0122 109.271 29.825C109.271 29.6516 109.245 29.5141 109.193 29.4123C109.14 29.3106 109.063 29.2372 108.962 29.1921C108.86 29.147 108.731 29.1245 108.576 29.1245H108.319V30.5255H108.472Z" fill="#656565"/>
<path fill-rule="evenodd" clip-rule="evenodd" d="M112.473 4.21465C112.918 3.75058 113.058 3.605 113.503 3.1409C113.684 2.95303 113.978 2.95303 114.159 3.1409C114.604 3.60497 114.743 3.75058 115.189 4.21465C115.369 4.40252 115.369 4.70991 115.189 4.89778C114.743 5.36188 114.604 5.50745 114.159 5.97152C113.978 6.15939 113.684 6.15939 113.503 5.97152C113.058 5.50745 112.918 5.36185 112.473 4.89778C112.293 4.70991 112.293 4.40252 112.473 4.21465Z" fill="#656565"/>
<path d="M1.88525 5.26904H31.0986L31.4048 5.30127L31.7271 5.39795L32.001 5.52686L32.2104 5.67188L32.3877 5.81689L32.5166 5.9458L32.6938 6.1875L32.8066 6.38086L32.8872 6.59033L32.9678 6.83203L33 6.84814V26.1357H32.9678L32.8872 26.4097L32.8066 26.603L32.6616 26.8608L32.4521 27.1187L32.2749 27.2798L32.0654 27.4248L31.7915 27.5698L31.4854 27.6665L31.1792 27.7148L30.9375 27.731H2.07861L1.64355 27.6987L1.38574 27.6343L1.12793 27.5376L0.902344 27.4087L0.757324 27.2959L0.596191 27.1509L0.515625 27.0703L0.370605 26.9092L0.241699 26.6997L0.128906 26.4741L0.0322266 26.168L0 26.0391V6.92871L0.161133 6.44531L0.338379 6.12305L0.547852 5.88135L0.676758 5.75244L0.918457 5.5752L1.17627 5.43018L1.46631 5.3335L1.72412 5.28516L1.88525 5.26904ZM1.94971 6.60645L1.72412 6.65479L1.54688 6.76758L1.43408 6.89648L1.35352 7.07373L1.32129 7.36377V10.5542H31.6626V7.17041L31.5981 6.96094L31.4854 6.7998L31.3564 6.70312L31.2275 6.63867L31.0503 6.60645H1.94971ZM1.48242 14.5181L1.32129 14.5342V25.6846L1.35352 25.9263L1.4502 26.1196L1.54688 26.2324L1.74023 26.3452L1.86914 26.3774L2.01416 26.3936H31.002L31.1953 26.3613L31.3403 26.2969L31.4692 26.2002L31.582 26.0713L31.6465 25.9102L31.6626 25.8135V14.5342L31.5337 14.5181H1.48242Z" fill="#656565"/>
<path d="M5.9458 18.4658H17.7729L17.9985 18.498L18.1436 18.5625L18.2725 18.6592L18.3853 18.7881L18.4497 18.917L18.4819 19.0459V19.2231L18.4175 19.4326L18.2886 19.6099L18.1436 19.7227L17.9502 19.7871L17.8213 19.8032H5.89746L5.63965 19.7388L5.49463 19.626L5.38184 19.4971L5.30127 19.3359L5.28516 19.2876V18.9976L5.34961 18.8203L5.44629 18.6914L5.5752 18.5786L5.73633 18.498L5.9458 18.4658Z" fill="#656565"/>
<path d="M5.89746 21.1084H12.5522L12.7778 21.1567L12.9712 21.2695L13.084 21.3984L13.1807 21.5918L13.1968 21.6562V21.8979L13.1484 22.0591L13.0195 22.2363L12.8584 22.3652L12.6489 22.4297L12.52 22.4458H5.92969L5.68799 22.3975L5.52686 22.3008L5.41406 22.188L5.31738 22.0269L5.28516 21.9141V21.6401L5.34961 21.4629L5.44629 21.3179L5.62354 21.189L5.80078 21.1245L5.89746 21.1084Z" fill="#656565"/>
</svg>
